<svg id="svg2" xmlns="http://www.w3.org/2000/svg" viewBox="0 0 461.59 422.67"><defs><style>.cls-1{fill:#0070bc;}</style></defs><title>zrh-guitar</title><polygon class="cls-1" points="329.27 165.87 330.09 167.29 330.23 165.87 329.27 165.87"/><path class="cls-1" d="M445.61,275.95a14.51,14.51,0,0,0-3.31.53l-5.6-20.17,2.85-3.66c8.5-11.09,13.6-17.49,17.42-24.85a41,41,0,0,0,3.22-29.5c-4.26-15.87-16.77-19.61-24.23-19.22-11.18.53-18,6.72-20.85,13.83A35.18,35.18,0,0,0,414,214.11l9.8,39c-3,3.91-5.61,8-7.39,10.26l-18.55-72.21,41.39-30.52C463,143.2,462.78,115.15,455,100c-7.39-14.5-17.88-21.82-27-25.15a44.08,44.08,0,0,0-6.19-2c-.07-1.23-.11-2.13-.14-2.52-.16-1.88-2.38-2.73-4.28-3.11-4.21-.92-5.42.84-5.42,1.48l-.12,2.52c-10.12-1.11-31.71-1-31.71-1l0,5.93V91l8.57,1a2.26,2.26,0,0,1,1.92,2.41,3,3,0,0,1-2.43,2.82,5.49,5.49,0,0,1-2,.33h-.09l-26.48-2.94L363,104.71c10.3,1.16,18.41,1.86,24.37,2.2.28,0,.53,0,.81,0a12.5,12.5,0,0,0,.62-25V79.5c3.57.09,8,.26,12.71.69a12.93,12.93,0,0,0,3.31,5.95,32.14,32.14,0,0,0,6.16,5.1l-.09,3.1a68.33,68.33,0,0,1-.21,9.36c-.46,4.29-3,7.5-12.3,7.83a124.4,124.4,0,0,1-19.76-1.43l.6,6.55c-3.59,2-7.16,4.93-11.74,9a50.46,50.46,0,0,0-8.6,10.77l-11.12-21.51a19.16,19.16,0,0,0,3.75-11.28c0-10.61-9.75-19.24-20-19.24a19.93,19.93,0,0,0-16.17,7.81s-3.43,2-4.05,7.63c-.57,5.09,2.26,13.67,2.26,13.67l34.9,75L332.24,200.7a18.94,18.94,0,0,0-5.3-1.13c-2,.46-10.1.32-15.86,5.1a20.68,20.68,0,0,0-1.51,1.71,72.43,72.43,0,0,0-7.18-8.27c-10.2-10.2-38.26-21.26-49.32-25.51V102.88l15.31-15.31c1.7-1.7,1.7-3.4,1.7-5.1l-1.6-10.14h10.47v-8H267.22l-1.1-7h9.56v-8H264.85l-1.26-8H270v-8h-7.63L257.07,0H203.4L198,33.33h-8.44v8h7.15l-1.29,8H183.89v8h10.3l-1.12,7H180.62v8h11.16l-1.63,10.14c0,1.7,0,3.4,1.7,5.1l15.31,15.31v69.72c-9.49,3.16-31.47,10-42.71,19.15h0q-.61.49-1.17,1l-.07.06c-.39.35-.76.69-1.11,1h0c-.66.71-1.3,1.42-1.91,2.12h0a72.11,72.11,0,0,0-7.72,10.45h0l-.11.19a21,21,0,0,0-3.24-3h-.53a13.41,13.41,0,0,0-1.09-.88l0-.23a20.88,20.88,0,0,0-12.78-3,19.05,19.05,0,0,0-5.33,1.13l-16.23-12.23,34.9-75a21.53,21.53,0,0,0-1.83-21.66l0,.37a19,19,0,0,0-4.86-4.55h0a3.81,3.81,0,0,1-.74-.45A20.68,20.68,0,0,0,130,84.41c-10.22,0-20,8.62-20,19.24a18.83,18.83,0,0,0,3.78,11.28l-11.16,21.51a50.53,50.53,0,0,0-8.62-10.77c-4.58-4.08-8.13-7-11.74-9L83,110.1a124.64,124.64,0,0,1-19.76,1.43c-9.31-.33-11.86-3.54-12.32-7.83a67.16,67.16,0,0,1-.16-9.36l-.14-3.1a33.4,33.4,0,0,0,6.21-5.1,13,13,0,0,0,3.27-5.95c4.79-.42,9.12-.6,12.71-.69v2.45a12.5,12.5,0,0,0,.63,25c.26,0,.53,0,.77,0,6-.33,14.1-1,24.39-2.2l3.22-10.08L75.35,97.57h-.11a5.44,5.44,0,0,1-2-.33,3,3,0,0,1-2.43-2.82A2.25,2.25,0,0,1,72.78,92l8.59-1V76.21l.07-5.93s-21.63-.12-31.78,1l-.12-2.52c0-.63-1.18-2.39-5.42-1.48-1.88.39-4.1,1.23-4.28,3.11,0,.39-.05,1.29-.12,2.52a44,44,0,0,0-6.2,2C24.42,78.18,14,85.5,6.59,100c-7.76,15.15-8,43.2,15.77,60.64l41.39,30.52L45.22,263.37c-1.8-2.24-4.35-6.35-7.37-10.26l9.77-39a35.46,35.46,0,0,0-1.13-21.19c-2.87-7.11-9.63-13.3-20.85-13.83-7.46-.39-20,3.34-24.25,19.22A41.08,41.08,0,0,0,4.6,227.8c3.85,7.36,8.92,13.76,17.44,24.85l2.83,3.66-5.54,20.17a14.82,14.82,0,0,0-3.34-.53A11.31,11.31,0,0,0,4.18,287.21,11.78,11.78,0,0,0,16,299a11.64,11.64,0,0,0,10-5.51c1.81-2.67,3.47-9.61,5.4-16.29l2.6-9,7.67,9.92C36.88,296,19.47,361.37,19.21,362.37c-3,12.74,8.41,23.69,20.19,23.64,10.52-.14,20.61-8.59,20.19-20.42-.21-5.56-2.39-9.64-5.9-12.33l19.24-30.45L109.14,374a30.87,30.87,0,0,0,5.44,6.23,20,20,0,0,0,14.34,6,18,18,0,0,0,3.93-.45c.77.94,1.58,1.9,2.43,2.86.38.43.77.85,1.16,1.28l.74.77.73.76,1,1,.54.53,1.19,1.12.41.38,1.36,1.22.3.26q.75.65,1.53,1.3l.2.17q.83.68,1.69,1.36l.11.08c16.17,12.64,42.14,23.72,84.75,23.72q57.84,0,86.08-25.05l.17-.15c1-.93,2.06-1.88,3-2.85l.64-.64,1.32-1.32,4-4q.85-1.08,1.63-2.16l.5-.72a18.12,18.12,0,0,0,4.37.55,20.11,20.11,0,0,0,14.34-6,33,33,0,0,0,5.44-6.23l36.25-51.23,19.18,30.45c-3.52,2.69-5.7,6.78-5.9,12.33-.42,11.83,9.68,20.27,20.19,20.42,11.79.05,23.23-10.89,20.17-23.64-.19-1-17.63-66.4-22.4-84.24l7.64-9.92,2.62,9c2,6.69,3.61,13.62,5.4,16.29a11.8,11.8,0,0,0,21.79-6.3A11.32,11.32,0,0,0,445.61,275.95ZM36.23,213.24,29,241.16c-2.36-3.13-4.26-5.61-5-6.74-3.08-4.47-11-15.63-11-29.41,0-6.85,5.88-14.59,13.23-13.9C35.38,192,39,202.49,36.23,213.24ZM323.58,109.78a9.55,9.55,0,0,1-1-4.21,8.69,8.69,0,0,1,8.62-8.75c4.51,0,8.59,4.33,8.59,8.75a8.71,8.71,0,0,1-4.26,7.51l17.76,34.44a54.28,54.28,0,0,0-3.17,10.68c-.53,3.27-.88,5.47-1.11,7Zm2.27,100.91.12,0a10.18,10.18,0,0,1,6.62,2.64l8.68-6.41,3.7-2.75,36.54-27-2.73-11.6-19,14.34a50.66,50.66,0,0,1,4.73-34.42c2.67-4.84,9.7-15.73,22.7-22.42a57.2,57.2,0,0,1,6.72-2.89c3.94.14,8.08.23,11.51.16,10-.23,13.69-6.35,14.68-10.3A92.15,92.15,0,0,0,422,93.7c.1-2.71.12-6.27.1-9.86C435.47,88,447.67,101.76,448.86,117c1.43,18.73-8.76,30-16.21,35.53l-78.24,58.13-8.67,6.42L331.6,227.62a9.54,9.54,0,0,1-5.42,1.62,7.75,7.75,0,0,1-2.09-.3c-3.94-1.14-7.44-5.17-7.53-8.71C316.42,215.34,319.41,210.59,325.85,210.69Zm14.06,118.94-.11-.57c-4.25-17.86-13.6-30.61-21.26-41.66-7.65-9.35-13.6-17-13.6-25.51-.85-6,1.7-10.2,5.1-15.31a89.39,89.39,0,0,0,4.82-9.75,25.09,25.09,0,0,0,8.11,3.55,16,16,0,0,0,2.43.14A20.12,20.12,0,0,0,338.19,236l24.06-18.14,19.22,41.52a19.06,19.06,0,0,0-3.5-.6c-2.15-.11-7.55-.14-11.26,3.38-2.61,2.45-5.42,6.72-7.46,12.27Zm-6.25,17.84-.09.26c-.28-.09-.55-.12-.86-.19a18.38,18.38,0,0,0-2.47-.27A17.79,17.79,0,0,1,333.67,347.47ZM214,11.89h11.83V25.67h8V11.89h12.49l3.62,21.45H210.33Zm-5,29.45h42.26l1.35,8h-45Zm-2.7,16h47.67l1.18,7h-50Zm2.39,127.29,2.24-.74,8.13-2.71V98l-3.48-3.48L202.26,81.17l1.49-8.84h52.73L258,81.17,244.67,94.48,241.19,98v82.81l7.62,2.93c31.61,12.16,41.88,19.52,45.18,22.82,7.37,7.37,11.13,13.92,11.19,19.46,0,4.57-2.33,8.94-4.84,13.56l-.49.9c-3.29,5-7.91,12.24-6.78,22.28.35,12.57,8.58,22.79,16,31.83l1.05,1.51c7.17,10.31,14.58,21,18.09,35.52a66.15,66.15,0,0,1,1,15.65,16.55,16.55,0,0,0-3.35.39l-58.15-56c8.65-16,6.33-36.8-7-50.12-13.7-13.7-35.36-15.78-51.48-6.23l-36.35-35C181.86,193.48,200.34,187.38,208.68,184.63Zm-19.44,90H165.7a25.5,25.5,0,0,0,2.39-10.86h21.65A43.56,43.56,0,0,0,189.23,274.67Zm-22.78-22.75a78.8,78.8,0,0,0-3.64-10l-.07-.17-.08-.17-.22-.49h35.72l1.8,1.73a40.78,40.78,0,0,0-6.29,9.12ZM213.2,309.3a43.25,43.25,0,0,0,35.53,0H269l11.27,10.86H133.54a78.08,78.08,0,0,1,6.27-10.86ZM209.71,250a30.06,30.06,0,1,1,0,42.51A29.77,29.77,0,0,1,209.71,250ZM292.55,332l11.27,10.86H129.09a61.71,61.71,0,0,1,.55-10.86ZM131.67,347.26a18.27,18.27,0,0,0-2.79.28c-.3.07-.58.11-.86.19l0-.13.32-.07A18.07,18.07,0,0,1,131.67,347.26Zm17.67,18.39A20.11,20.11,0,0,0,146,354.79h62.47a6.25,6.25,0,0,0-.44,2.33,5.81,5.81,0,0,0,6,6h34c1.7,0,3.4-1.7,4.25-2.55a12.12,12.12,0,0,0,1.7-3.4,6.25,6.25,0,0,0-.44-2.33h62.14a20.11,20.11,0,0,0-3.36,10.86Zm9-140.55a23.66,23.66,0,0,1,1.5-6.78h14.72l11.27,10.86H158.49A21.35,21.35,0,0,1,158.33,225.1Zm33.56,61.45A41.17,41.17,0,0,0,198,297.41H149l2-2.35.76-.91,0,0,0,0c1-1.21,2-2.38,2.91-3.51,1.11-1.33,2.22-2.66,3.31-4Zm-44.06-50.38c.05.19.1.37.16.55l.08.25q.18.6.38,1.2l.06.19q.21.63.44,1.25l0,.11c.88,2.39,1.89,4.67,2.9,6.85.8,1.86,1.5,3.62,2.1,5.34.46,1.29.84,2.55,1.17,3.79.06.22.11.44.17.66s.14.61.21.91c.11.5.2,1,.28,1.49,0,.16,0,.32.07.49.06.42.11.85.15,1.27,0,.17,0,.35,0,.52,0,.56.07,1.12.07,1.68h0c0,.05,0,.1,0,.15.39,4-1.3,7.76-4.08,11.78-2.52,3.63-5.92,7.47-9.53,11.88-2.83,3.39-5.84,7-8.79,10.87h0c-1.66,2.19-3.3,4.49-4.88,6.9h0a82.76,82.76,0,0,0-9.37,19l-17.11-48.9c-2.06-5.54-4.88-9.82-7.48-12.27-3.71-3.52-9.12-3.48-11.26-3.38a19.73,19.73,0,0,0-3.52.6l19.22-41.52L123.41,236a20.17,20.17,0,0,0,12.76,4.49,15.93,15.93,0,0,0,2.46-.14A64.72,64.72,0,0,0,147.83,236.18ZM126.07,113.09a8.78,8.78,0,0,1-4.26-7.51c0-4.42,4.1-8.75,8.59-8.75a8.69,8.69,0,0,1,8.62,8.75,9.57,9.57,0,0,1-1,4.21l-25.47,55.38c-.19-1.48-.55-3.68-1.09-7a53,53,0,0,0-3.13-10.68ZM29,152.56C21.53,147,11.29,135.76,12.75,117c1.2-15.28,13.39-29,26.68-33.19,0,3.59,0,7.15.12,9.86a93.31,93.31,0,0,0,1.94,16.4c1,3.94,4.63,10.07,14.66,10.3,3.45.07,7.58,0,11.53-.16a59.74,59.74,0,0,1,6.72,2.89c13,6.69,20,17.58,22.68,22.42A50.45,50.45,0,0,1,101.8,180l-19-14.34-2.75,11.6,36.57,27,3.71,2.75,8.66,6.41a10,10,0,0,1,6.6-2.64l.12,0c6.44-.11,9.49,4.65,9.33,9.54-.11,3.54-3.62,7.57-7.55,8.71a7.93,7.93,0,0,1-2.09.3,9.58,9.58,0,0,1-5.46-1.62l-14.1-10.51-8.69-6.42ZM73.08,300.69a3.18,3.18,0,0,0-.16.6,6.1,6.1,0,0,1-.26,1l0,.16a26.78,26.78,0,0,1-2.34,4.88l-8.89,14-2.85,4.43L44.85,347.17l-1.39,2.24-4.82,7.5h.49a8.48,8.48,0,0,1,8.68,8.69c0,3.52-3,8.34-8.18,8.34s-8.91-3.62-8.91-8.34A10.28,10.28,0,0,1,31,363l43-164L91,211.55,57,285.31l-1.43,3.24a11.73,11.73,0,0,1,17.62,10.12A11.33,11.33,0,0,1,73.08,300.69Zm55.4,73.56a8.7,8.7,0,0,1-5.91-2.36,61.89,61.89,0,0,1-5.12-6.11l-4.95-6.92-1.41-2-31.5-44.49c3.27-5.26,5.72-10.35,5.72-14.68,0-10.21-6.83-17-15-17l5.61-12.09c.92-.54,2.83-1.2,6.28-.46,5.47,1.13,7.9,5.58,8.94,8.24.83,2.15,19.18,54.4,26.7,75.74l.32.92,2.85,8,.55-.88a8.6,8.6,0,0,1,7-3,8.52,8.52,0,0,1,0,17ZM231,410.71c-23.46,0-43.22-3.49-59.14-10.42H290.74C275.24,407.21,255.25,410.71,231,410.71Zm86.3-30-5.43,5.43c-.78.78-1.58,1.53-2.41,2.27H152.15a72.14,72.14,0,0,1-8.74-8.54,21.94,21.94,0,0,0,2-2.32H316.2a21.93,21.93,0,0,0,1.82,2.14C317.77,380,317.53,380.36,317.27,380.7Zm33.22-23.84-1.41,2-4.89,6.92A61.77,61.77,0,0,1,339,371.9a8.63,8.63,0,0,1-5.89,2.36,8.53,8.53,0,1,1,7-14.08l.6.88,2.82-8,.32-.92c7.5-21.35,25.87-73.6,26.73-75.74,1-2.66,3.45-7.11,8.9-8.24,3.49-.74,5.37-.09,6.3.46l5.6,12.09c-8.22,0-15,6.81-15,17,0,4.33,2.39,9.41,5.69,14.68ZM430.61,363a10.63,10.63,0,0,1,.28,2.64c0,4.72-3.56,8.34-8.91,8.34s-8.2-4.82-8.2-8.34a8.47,8.47,0,0,1,8.67-8.69H423l-4.86-7.5-1.39-2.24-13.67-21.45-2.83-4.43-8.9-14a26.38,26.38,0,0,1-2.3-4.88l-.05-.16a4.74,4.74,0,0,1-.28-1,2.27,2.27,0,0,0-.16-.6,13.35,13.35,0,0,1-.16-2A11.74,11.74,0,0,1,406,288.55l-1.44-3.24-33.93-73.76,17-12.62Zm2-121.8-7.25-27.91c-2.8-10.75.86-21.28,10.08-22.14,7.34-.69,13.25,7.06,13.25,13.9,0,13.78-8,24.94-11.05,29.41C436.88,235.54,435,238,432.62,241.16Z"/></svg>